<svg id="Layer_1" data-name="Layer 1" xmlns="http://www.w3.org/2000/svg" viewBox="0 0 64 64"><defs><style>.cls-1{fill:#5572fe;}.cls-2{fill:none;stroke:#fff;stroke-linejoin:round;stroke-width:1.53px;}</style></defs><title>favicon</title><path class="cls-1" d="M0,11.23A11.23,11.23,0,0,1,11.23,0H52.77A11.23,11.23,0,0,1,64,11.23V52.77A11.23,11.23,0,0,1,52.77,64H11.23A11.23,11.23,0,0,1,0,52.77Z" transform="translate(0 0)"/><path class="cls-2" d="M35.61,25.48l-4.07-1-4.07,1-3,2.79L23.4,32.09l1.09,3.81,3,2.8,4.07,1,4.07-1,3-2.8,1.09-3.81-1.09-3.82Z" transform="translate(0 0)"/><path class="cls-2" d="M39.68,17.55,31.54,15.3,23.4,17.55l-6,6.14-2.18,8.4,2.18,8.39,6,6.15,8.14,2.25,8.14-2.25,6-6.15,2.18-8.39-2.18-8.4Z" transform="translate(0 0)"/><path class="cls-2" d="M43.75,11.38,31.54,8.18l-12.21,3.2-8.94,8.75-3.27,12L10.39,44l8.94,8.76L31.54,56l12.21-3.2L52.69,44,56,32.09l-3.27-12Z" transform="translate(0 0)"/></svg>