<svg width="49" height="49" viewBox="0 0 49 49" fill="none" xmlns="http://www.w3.org/2000/svg">
<path d="M0 8.90693C0 4.25175 3.77376 0.477982 8.42894 0.477982H39.616C44.2712 0.477982 48.045 4.25175 48.045 8.90692V40.094C48.045 44.7492 44.2712 48.5229 39.616 48.5229H8.42894C3.77377 48.5229 0 44.7492 0 40.094V8.90693Z" fill="#5572FE"/>
<path d="M26.7355 19.6048L23.68 18.8373L20.6246 19.6048L18.3878 21.7018L17.5691 24.5663L18.3878 27.4308L20.6246 29.5278L23.68 30.2954L26.7355 29.5278L28.9723 27.4308L29.791 24.5663L28.9723 21.7018L26.7355 19.6048Z" stroke="white" stroke-width="1.52775" stroke-linejoin="round"/>
<path d="M29.791 13.651L23.6801 11.9624L17.5691 13.651L13.0955 18.2644L11.4581 24.5663L13.0955 30.8683L17.5691 35.4816L23.6801 37.1702L29.791 35.4816L34.2646 30.8683L35.902 24.5663L34.2646 18.2644L29.791 13.651Z" stroke="white" stroke-width="1.52775" stroke-linejoin="round"/>
<path d="M32.8465 9.02029L23.68 6.61531L14.5136 9.02029L7.80326 15.5908L5.34711 24.5663L7.80326 33.5418L14.5136 40.1123L23.68 42.5173L32.8465 40.1123L39.5568 33.5418L42.013 24.5663L39.5568 15.5908L32.8465 9.02029Z" stroke="white" stroke-width="1.52775" stroke-linejoin="round"/>
</svg>