<svg id="Layer_1" data-name="Layer 1" xmlns="http://www.w3.org/2000/svg" viewBox="0 0 541.2 541.2"><defs><style>.cls-1{fill:#5572fe;}</style></defs><title>logo-lifetracker</title><path class="cls-1" d="M396.11,131.44l-100-26.23-100,26.23L123.07,203,96.33,300.74l26.74,97.72,73.11,71.59,100,26.22,100-26.22,73.11-71.59L496,300.74,469.22,203Zm43.95,170.93-18.44,71a6.44,6.44,0,0,1-1.61,2.88l-50.39,52a6.37,6.37,0,0,1-2.92,1.73l-68.84,19a6.55,6.55,0,0,1-3.44,0l-68.83-19a6.35,6.35,0,0,1-2.93-1.73l-50.39-52a6.54,6.54,0,0,1-1.61-2.88l-18.44-71a6.39,6.39,0,0,1,0-3.25l18.44-71a6.5,6.5,0,0,1,1.61-2.87l50.39-52a6.35,6.35,0,0,1,2.93-1.73l68.83-19a6.48,6.48,0,0,1,3.44,0l68.84,19a6.37,6.37,0,0,1,2.92,1.73l50.39,52a6.41,6.41,0,0,1,1.61,2.87l18.44,71A6.39,6.39,0,0,1,440.06,302.37Z" transform="translate(-29.4 -29.4)"/><path class="cls-1" d="M361.57,183.55l-65.43-18.08-65.43,18.08-48,49.48-17.59,67.71,17.59,67.72,48,49.48L296.14,436l65.43-18.08,48-49.48,17.59-67.72L409.55,233Zm9.62,119L362,334.78a6.44,6.44,0,0,1-1.79,2.94L335,361.34a6.39,6.39,0,0,1-2.84,1.55l-34.42,8.65a6.5,6.5,0,0,1-1.58.19,6.42,6.42,0,0,1-1.57-.19l-34.42-8.65a6.48,6.48,0,0,1-2.85-1.55l-25.19-23.62a6.44,6.44,0,0,1-1.79-2.94l-9.23-32.26a6.49,6.49,0,0,1,0-3.55l9.23-32.27a6.49,6.49,0,0,1,1.79-2.94l25.19-23.62a6.48,6.48,0,0,1,2.85-1.55l34.42-8.65a6.46,6.46,0,0,1,3.15,0l34.42,8.65a6.39,6.39,0,0,1,2.84,1.55l25.2,23.62A6.49,6.49,0,0,1,362,266.7L371.19,299A6.49,6.49,0,0,1,371.19,302.52Z" transform="translate(-29.4 -29.4)"/><path class="cls-1" d="M475.65,29.4H124.35A95,95,0,0,0,29.4,124.35v351.3a95,95,0,0,0,94.95,95h351.3a95,95,0,0,0,95-95V124.35A95,95,0,0,0,475.65,29.4Zm33.23,273.05-27.67,101.1a6.3,6.3,0,0,1-1.71,2.91l-75.58,74a6.52,6.52,0,0,1-2.88,1.63L297.79,509.2a6.61,6.61,0,0,1-1.65.21,6.53,6.53,0,0,1-1.64-.21L191.25,482.11a6.52,6.52,0,0,1-2.88-1.63l-75.59-74a6.39,6.39,0,0,1-1.71-2.91L83.41,302.45a6.37,6.37,0,0,1,0-3.41l27.66-101.11a6.44,6.44,0,0,1,1.71-2.91l75.59-74a6.33,6.33,0,0,1,2.88-1.63L294.5,92.29a6.33,6.33,0,0,1,3.29,0L401,119.38a6.33,6.33,0,0,1,2.88,1.63l75.58,74a6.35,6.35,0,0,1,1.71,2.91L508.88,299A6.57,6.57,0,0,1,508.88,302.45Z" transform="translate(-29.4 -29.4)"/><polygon class="cls-1" points="297.97 221.31 266.74 213.47 235.52 221.31 212.85 242.57 204.63 271.34 212.85 300.12 235.52 321.37 266.74 329.22 297.97 321.37 320.63 300.12 328.86 271.34 320.63 242.57 297.97 221.31"/></svg>