<?xml version="1.0" encoding="utf-8"?>
<!-- Generator: Adobe Illustrator 24.0.1, SVG Export Plug-In . SVG Version: 6.00 Build 0)  -->
<svg version="1.1" id="Layer_1" xmlns="http://www.w3.org/2000/svg" xmlns:xlink="http://www.w3.org/1999/xlink" x="0px" y="0px"
	 viewBox="0 0 600 600" style="enable-background:new 0 0 600 600;" xml:space="preserve">
<style type="text/css">
	.st0{fill:#0D6EFD;}
</style>
<g>
	<g>
		<path class="st0" d="M396.1,131.4l-100-26.2l-100,26.2L123.1,203l-26.7,97.7l26.7,97.7l73.1,71.6l100,26.2l100-26.2l73.1-71.6
			l26.7-97.7L469.2,203L396.1,131.4z M440.1,302.4l-18.4,71c-0.3,1.1-0.8,2.1-1.6,2.9l-50.4,52c-0.8,0.8-1.8,1.4-2.9,1.7l-68.8,19
			c-0.6,0.2-1.1,0.2-1.7,0.2s-1.2-0.1-1.7-0.2l-68.8-19c-1.1-0.3-2.1-0.9-2.9-1.7l-50.4-52c-0.8-0.8-1.3-1.8-1.6-2.9l-18.4-71
			c-0.3-1.1-0.3-2.2,0-3.3l18.4-71c0.3-1.1,0.8-2.1,1.6-2.9l50.4-52c0.8-0.8,1.8-1.4,2.9-1.7l68.8-19c1.1-0.3,2.3-0.3,3.4,0l68.8,19
			c1.1,0.3,2.1,0.9,2.9,1.7l50.4,52c0.8,0.8,1.3,1.8,1.6,2.9l18.4,71C440.3,300.2,440.3,301.3,440.1,302.4z"/>
		<path class="st0" d="M361.6,183.6l-65.4-18.1l-65.4,18.1l-48,49.5l-17.6,67.7l17.6,67.7l48,49.5l65.4,18.1l65.4-18.1l48-49.5
			l17.6-67.7L409.6,233L361.6,183.6z M371.2,302.5l-9.2,32.3c-0.3,1.1-0.9,2.1-1.8,2.9L335,361.3c-0.8,0.8-1.8,1.3-2.8,1.5
			l-34.4,8.6c-0.5,0.1-1,0.2-1.6,0.2s-1.1-0.1-1.6-0.2l-34.4-8.6c-1.1-0.3-2-0.8-2.8-1.5l-25.2-23.6c-0.9-0.8-1.5-1.8-1.8-2.9
			l-9.2-32.3c-0.3-1.2-0.3-2.4,0-3.5l9.2-32.3c0.3-1.1,0.9-2.1,1.8-2.9l25.2-23.6c0.8-0.8,1.8-1.3,2.8-1.6l34.4-8.6
			c1-0.3,2.1-0.3,3.1,0l34.4,8.6c1.1,0.3,2,0.8,2.8,1.6l25.2,23.6c0.9,0.8,1.5,1.8,1.8,2.9l9.2,32.3
			C371.5,300.1,371.5,301.4,371.2,302.5z"/>
		<path class="st0" d="M475.6,29.4H124.3c-52.4,0-94.9,42.5-94.9,94.9v351.3c0,52.4,42.5,94.9,94.9,94.9h351.3
			c52.4,0,94.9-42.5,94.9-95V124.3C570.6,71.9,528.1,29.4,475.6,29.4z M508.9,302.5l-27.7,101.1c-0.3,1.1-0.9,2.1-1.7,2.9l-75.6,74
			c-0.8,0.8-1.8,1.4-2.9,1.6l-103.3,27.1c-0.5,0.1-1.1,0.2-1.6,0.2c-0.5,0-1.1-0.1-1.6-0.2l-103.3-27.1c-1.1-0.3-2.1-0.9-2.9-1.6
			l-75.6-74c-0.8-0.8-1.4-1.8-1.7-2.9L83.4,302.5c-0.3-1.1-0.3-2.3,0-3.4l27.7-101.1c0.3-1.1,0.9-2.1,1.7-2.9l75.6-74
			c0.8-0.8,1.8-1.3,2.9-1.6l103.2-27.1c1.1-0.3,2.2-0.3,3.3,0L401,119.4c1.1,0.3,2.1,0.8,2.9,1.6l75.6,74c0.8,0.8,1.4,1.8,1.7,2.9
			L508.9,299C509.2,300.1,509.2,301.3,508.9,302.5z"/>
		<polygon class="st0" points="327.4,250.7 296.1,242.9 264.9,250.7 242.3,272 234,300.7 242.3,329.5 264.9,350.8 296.1,358.6 
			327.4,350.8 350,329.5 358.3,300.7 350,272 		"/>
	</g>
</g>
</svg>
