<?xml version="1.0" encoding="utf-8"?>
<!-- Generator: Adobe Illustrator 24.0.1, SVG Export Plug-In . SVG Version: 6.00 Build 0)  -->
<svg version="1.1" id="Layer_1" xmlns="http://www.w3.org/2000/svg" xmlns:xlink="http://www.w3.org/1999/xlink" x="0px" y="0px"
	 viewBox="0 0 600 600" style="enable-background:new 0 0 600 600;" xml:space="preserve">
<style type="text/css">
	.st0{fill:#5572FE;}
</style>
<g>
	<path class="st0" d="M396.11,131.44l-99.96-26.23l-99.96,26.23l-73.11,71.59l-26.74,97.72l26.74,97.71l73.11,71.59l99.96,26.23
		l99.96-26.23l73.11-71.59l26.74-97.71l-26.74-97.72L396.11,131.44z M440.06,302.37l-18.44,70.99c-0.28,1.08-0.83,2.07-1.61,2.87
		l-50.39,51.97c-0.8,0.83-1.81,1.42-2.92,1.73l-68.84,19.02c-0.56,0.16-1.14,0.23-1.72,0.23s-1.16-0.07-1.72-0.23l-68.84-19.02
		c-1.11-0.31-2.12-0.9-2.92-1.73l-50.39-51.97c-0.78-0.8-1.33-1.79-1.61-2.87l-18.44-70.99c-0.28-1.07-0.28-2.18,0-3.25l18.44-70.99
		c0.28-1.08,0.83-2.07,1.61-2.87l50.39-51.97c0.8-0.83,1.81-1.42,2.92-1.73l68.84-19.02c1.12-0.31,2.31-0.31,3.44,0l68.84,19.02
		c1.11,0.31,2.12,0.9,2.92,1.73l50.39,51.97c0.78,0.8,1.33,1.79,1.61,2.87l18.44,70.99C440.34,300.19,440.34,301.3,440.06,302.37z"
		/>
	<path class="st0" d="M361.57,183.55l-65.43-18.08l-65.43,18.08l-47.98,49.48l-17.59,67.72l17.59,67.71l47.98,49.48l65.43,18.08
		l65.43-18.08l47.98-49.48l17.59-67.71l-17.59-67.72L361.57,183.55z M371.19,302.52l-9.22,32.26c-0.32,1.12-0.94,2.14-1.79,2.94
		l-25.2,23.62c-0.8,0.75-1.78,1.29-2.84,1.55l-34.42,8.65c-0.52,0.13-1.05,0.19-1.58,0.19c-0.53,0-1.06-0.06-1.58-0.19l-34.42-8.65
		c-1.06-0.26-2.04-0.8-2.84-1.55l-25.2-23.62c-0.85-0.8-1.47-1.81-1.79-2.94l-9.22-32.26c-0.33-1.16-0.33-2.39,0-3.55l9.22-32.27
		c0.32-1.12,0.94-2.14,1.79-2.94l25.2-23.62c0.8-0.75,1.78-1.29,2.84-1.55l34.42-8.65c1.04-0.26,2.11-0.26,3.15,0l34.42,8.65
		c1.06,0.26,2.04,0.8,2.84,1.55l25.2,23.62c0.85,0.8,1.47,1.81,1.79,2.94l9.22,32.27C371.52,300.13,371.52,301.36,371.19,302.52z"/>
	<path class="st0" d="M475.65,29.4H124.35c-52.44,0-94.95,42.51-94.95,94.95v351.31c0,52.44,42.51,94.95,94.95,94.95h351.31
		c52.44,0,94.95-42.51,94.95-94.95V124.35C570.6,71.91,528.09,29.4,475.65,29.4z M508.88,302.45l-27.66,101.1
		c-0.3,1.1-0.89,2.11-1.71,2.91l-75.59,74.01c-0.8,0.78-1.79,1.35-2.88,1.63L297.79,509.2c-0.55,0.14-1.09,0.21-1.64,0.21
		c-0.55,0-1.1-0.07-1.64-0.21l-103.25-27.09c-1.09-0.28-2.08-0.85-2.88-1.63l-75.59-74.01c-0.82-0.8-1.41-1.81-1.71-2.91
		l-27.66-101.1c-0.31-1.11-0.31-2.3,0-3.41l27.66-101.11c0.3-1.1,0.89-2.11,1.71-2.91l75.59-74.01c0.8-0.78,1.79-1.35,2.88-1.63
		L294.5,92.29c1.09-0.28,2.2-0.28,3.29,0l103.25,27.09c1.09,0.28,2.08,0.85,2.88,1.63l75.59,74.01c0.82,0.8,1.41,1.81,1.71,2.91
		l27.66,101.11C509.18,300.15,509.18,301.33,508.88,302.45z"/>
	<polygon class="st0" points="327.37,250.71 296.14,242.87 264.92,250.71 242.25,271.97 234.03,300.74 242.25,329.52 264.92,350.77 
		296.14,358.62 327.37,350.77 350.03,329.52 358.26,300.74 350.03,271.97 	"/>
</g>
</svg>
