<svg width="54" height="54" viewBox="0 0 54 54" fill="none" xmlns="http://www.w3.org/2000/svg">
<g clip-path="url(#clip0_36_15)">
<path d="M36.9286 20.4285C36.9286 23.0996 35.8675 25.6613 33.9787 27.5501C32.09 29.4388 29.5283 30.4999 26.8571 30.4999C24.186 30.4999 21.6243 29.4388 19.7356 27.5501C17.8468 25.6613 16.7857 23.0996 16.7857 20.4285C16.7857 17.7574 17.8468 15.1957 19.7356 13.3069C21.6243 11.4181 24.186 10.3571 26.8571 10.3571C29.5283 10.3571 32.09 11.4181 33.9787 13.3069C35.8675 15.1957 36.9286 17.7574 36.9286 20.4285Z" fill="white"/>
<path fill-rule="evenodd" clip-rule="evenodd" d="M0 27.1428C0 20.0198 2.82958 13.1886 7.86628 8.15192C12.903 3.11523 19.7342 0.285645 26.8571 0.285645C33.9801 0.285645 40.8113 3.11523 45.848 8.15192C50.8847 13.1886 53.7143 20.0198 53.7143 27.1428C53.7143 34.2657 50.8847 41.097 45.848 46.1337C40.8113 51.1704 33.9801 53.9999 26.8571 53.9999C19.7342 53.9999 12.903 51.1704 7.86628 46.1337C2.82958 41.097 0 34.2657 0 27.1428ZM26.8571 3.64279C22.4317 3.64302 18.0962 4.89286 14.3498 7.24845C10.6033 9.60404 7.59816 12.9696 5.68017 16.9579C3.76217 20.9461 3.0093 25.3949 3.50821 29.7921C4.00712 34.1893 5.73754 38.3564 8.50029 41.8135C10.8839 37.9729 16.1311 33.8571 26.8571 33.8571C37.5832 33.8571 42.8271 37.9696 45.214 41.8135C47.9768 38.3564 49.7072 34.1893 50.2061 29.7921C50.705 25.3949 49.9521 20.9461 48.0341 16.9579C46.1161 12.9696 43.111 9.60404 39.3645 7.24845C35.6181 4.89286 31.2826 3.64302 26.8571 3.64279Z" fill="white"/>
</g>
<defs>
<clipPath id="clip0_36_15">
<rect width="53.7143" height="53.7143" fill="white" transform="translate(0 0.285645)"/>
</clipPath>
</defs>
</svg>
