<svg width="54" height="54" viewBox="0 0 54 54" fill="none" xmlns="http://www.w3.org/2000/svg">
<path d="M27 2C13.1929 2 2 13.1929 2 27C2 40.807 13.1929 52 27 52C40.807 52 52 40.807 52 27C52 13.1929 40.807 2 27 2Z" stroke="#4364FF" stroke-width="3" stroke-linecap="round" stroke-linejoin="round"/>
<path d="M7.67761 42.8642C7.67761 42.8642 13.2502 35.75 27.0001 35.75C40.7501 35.75 46.3229 42.8642 46.3229 42.8642" stroke="#4364FF" stroke-width="3" stroke-linecap="round" stroke-linejoin="round"/>
<path d="M26.9998 27C31.142 27 34.4998 23.6422 34.4998 19.5C34.4998 15.3579 31.142 12 26.9998 12C22.8575 12 19.4998 15.3579 19.4998 19.5C19.4998 23.6422 22.8575 27 26.9998 27Z" stroke="#4364FF" stroke-width="3" stroke-linecap="round" stroke-linejoin="round"/>
</svg>
